<?plantuml 1.2026.2?><svg xmlns="http://www.w3.org/2000/svg" xmlns:xlink="http://www.w3.org/1999/xlink" contentStyleType="text/css" data-diagram-type="DESCRIPTION" height="1109px" preserveAspectRatio="none" style="width:2306px;height:1109px;background:#FAFAFA;" version="1.1" viewBox="0 0 2306 1109" width="2306px" zoomAndPan="magnify"><title>logfence &#8212; Crate Dependency Structure</title><defs/><g><rect fill="#FAFAFA" height="1109" style="stroke:none;stroke-width:1;" width="2306" x="0" y="0"/><g class="title" data-source-line="1"><text fill="#000000" font-family="monospace" font-size="14" font-weight="bold" lengthAdjust="spacing" textLength="311.8623" x="990.5188" y="22.9951">logfence&#160;&#8212;&#160;Crate&#160;Dependency&#160;Structure</text></g><!--cluster logfence workspace--><g class="cluster" data-qualified-name="logfence workspace" data-source-line="8" id="ent0002"><rect fill="none" height="1059.38" rx="2.5" ry="2.5" style="stroke:#181818;stroke-width:1;" width="1738" x="7" y="44.2969"/><text fill="#000000" font-family="monospace" font-size="14" font-weight="bold" lengthAdjust="spacing" textLength="151.7168" x="800.1416" y="59.292">logfence&#160;workspace</text></g><!--cluster logfence-proto--><g class="cluster" data-qualified-name="logfence workspace.logfence-proto" data-source-line="10" id="ent0003"><rect fill="#DDEEFF" height="304.19" rx="2.5" ry="2.5" style="stroke:#181818;stroke-width:1;" width="805" x="39" y="339.5969"/><text fill="#000000" font-family="monospace" font-size="14" font-style="italic" lengthAdjust="spacing" textLength="59.001" x="411.9995" y="354.592">&#171;crate&#187;</text><text fill="#000000" font-family="monospace" font-size="14" font-weight="bold" lengthAdjust="spacing" textLength="118.002" x="382.499" y="370.8889">logfence-proto</text></g><!--cluster logfence-client--><g class="cluster" data-qualified-name="logfence workspace.logfence-client" data-source-line="18" id="ent0009"><rect fill="#DDFFD0" height="304.19" rx="2.5" ry="2.5" style="stroke:#181818;stroke-width:1;" width="679" x="1034" y="339.5969"/><text fill="#000000" font-family="monospace" font-size="14" font-style="italic" lengthAdjust="spacing" textLength="59.001" x="1343.9995" y="354.592">&#171;crate&#187;</text><text fill="#000000" font-family="monospace" font-size="14" font-weight="bold" lengthAdjust="spacing" textLength="126.4307" x="1310.2847" y="370.8889">logfence-client</text></g><!--cluster logfence-daemon--><g class="cluster" data-qualified-name="logfence workspace.logfence-daemon" data-source-line="27" id="ent0016"><rect fill="#FFEECC" height="378.89" rx="2.5" ry="2.5" style="stroke:#181818;stroke-width:1;" width="592" x="276" y="692.7869"/><text fill="#000000" font-family="monospace" font-size="14" font-style="italic" lengthAdjust="spacing" textLength="59.001" x="542.4995" y="707.782">&#171;crate&#187;</text><text fill="#000000" font-family="monospace" font-size="14" font-weight="bold" lengthAdjust="spacing" textLength="126.4307" x="508.7847" y="724.0789">logfence-daemon</text></g><!--cluster logfence-itests--><g class="cluster" data-qualified-name="logfence workspace.logfence-itests" data-source-line="38" id="ent0025"><rect fill="#F0F0F0" height="164.3" rx="2.5" ry="2.5" style="stroke:#181818;stroke-width:1;" width="411" x="656" y="95.2969"/><text fill="#000000" font-family="monospace" font-size="14" font-style="italic" lengthAdjust="spacing" textLength="59.001" x="831.9995" y="110.292">&#171;crate&#187;</text><text fill="#000000" font-family="monospace" font-size="14" font-weight="bold" lengthAdjust="spacing" textLength="126.4307" x="798.2847" y="126.5889">logfence-itests</text></g><!--entity Facility / Severity / Priority--><g class="entity" data-qualified-name="logfence workspace.logfence-proto.Facility . Severity . Priority" data-source-line="11" id="ent0004"><rect fill="#F1F1F1" height="46.2969" rx="2.5" ry="2.5" style="stroke:#181818;stroke-width:0.5;" width="292.8613" x="62.57" y="441.7469"/><rect fill="#F1F1F1" height="10" style="stroke:#181818;stroke-width:0.5;" width="15" x="335.4313" y="446.7469"/><rect fill="#F1F1F1" height="2" style="stroke:#181818;stroke-width:0.5;" width="4" x="333.4313" y="448.7469"/><rect fill="#F1F1F1" height="2" style="stroke:#181818;stroke-width:0.5;" width="4" x="333.4313" y="452.7469"/><text fill="#000000" font-family="monospace" font-size="14" lengthAdjust="spacing" textLength="252.8613" x="77.57" y="474.742">Facility&#160;/&#160;Severity&#160;/&#160;Priority</text></g><!--entity SyslogMessage\n(parser + Display)--><g class="entity" data-qualified-name="logfence workspace.logfence-proto.SyslogMessage.n.parser . Display." data-source-line="12" id="ent0005"><rect fill="#F1F1F1" height="62.5938" rx="2.5" ry="2.5" style="stroke:#181818;stroke-width:0.5;" width="191.7168" x="390.14" y="433.5969"/><rect fill="#F1F1F1" height="10" style="stroke:#181818;stroke-width:0.5;" width="15" x="561.8568" y="438.5969"/><rect fill="#F1F1F1" height="2" style="stroke:#181818;stroke-width:0.5;" width="4" x="559.8568" y="440.5969"/><rect fill="#F1F1F1" height="2" style="stroke:#181818;stroke-width:0.5;" width="4" x="559.8568" y="444.5969"/><text fill="#000000" font-family="monospace" font-size="14" lengthAdjust="spacing" textLength="109.5732" x="405.14" y="466.592">SyslogMessage</text><text fill="#000000" font-family="monospace" font-size="14" lengthAdjust="spacing" textLength="151.7168" x="405.14" y="482.8889">(parser&#160;+&#160;Display)</text></g><!--entity OctetCountCodec\n(RFC 6587 ?3.4.1)--><g class="entity" data-qualified-name="logfence workspace.logfence-proto.OctetCountCodec.n.RFC 6587 .3.4.1." data-source-line="13" id="ent0006"><rect fill="#F1F1F1" height="62.5938" rx="2.5" ry="2.5" style="stroke:#181818;stroke-width:0.5;" width="183.2881" x="617.36" y="433.5969"/><rect fill="#F1F1F1" height="10" style="stroke:#181818;stroke-width:0.5;" width="15" x="780.6481" y="438.5969"/><rect fill="#F1F1F1" height="2" style="stroke:#181818;stroke-width:0.5;" width="4" x="778.6481" y="440.5969"/><rect fill="#F1F1F1" height="2" style="stroke:#181818;stroke-width:0.5;" width="4" x="778.6481" y="444.5969"/><text fill="#000000" font-family="monospace" font-size="14" lengthAdjust="spacing" textLength="126.4307" x="632.36" y="466.592">OctetCountCodec</text><text fill="#000000" font-family="monospace" font-size="14" lengthAdjust="spacing" textLength="143.2881" x="632.36" y="482.8889">(RFC&#160;6587&#160;&#167;3.4.1)</text></g><!--entity DelimiterCodec\n(RFC 6587 ?3.4.2)--><g class="entity" data-qualified-name="logfence workspace.logfence-proto.DelimiterCodec.n.RFC 6587 .3.4.2." data-source-line="14" id="ent0007"><rect fill="#F1F1F1" height="62.5938" rx="2.5" ry="2.5" style="stroke:#181818;stroke-width:0.5;" width="183.2881" x="211.36" y="557.1969"/><rect fill="#F1F1F1" height="10" style="stroke:#181818;stroke-width:0.5;" width="15" x="374.6481" y="562.1969"/><rect fill="#F1F1F1" height="2" style="stroke:#181818;stroke-width:0.5;" width="4" x="372.6481" y="564.1969"/><rect fill="#F1F1F1" height="2" style="stroke:#181818;stroke-width:0.5;" width="4" x="372.6481" y="568.1969"/><text fill="#000000" font-family="monospace" font-size="14" lengthAdjust="spacing" textLength="118.002" x="226.36" y="590.192">DelimiterCodec</text><text fill="#000000" font-family="monospace" font-size="14" lengthAdjust="spacing" textLength="143.2881" x="226.36" y="606.4889">(RFC&#160;6587&#160;&#167;3.4.2)</text></g><!--entity ParseError / FrameError--><g class="entity" data-qualified-name="logfence workspace.logfence-proto.ParseError . FrameError" data-source-line="15" id="ent0008"><rect fill="#F1F1F1" height="46.2969" rx="2.5" ry="2.5" style="stroke:#181818;stroke-width:0.5;" width="233.8604" x="430.07" y="565.3369"/><rect fill="#F1F1F1" height="10" style="stroke:#181818;stroke-width:0.5;" width="15" x="643.9304" y="570.3369"/><rect fill="#F1F1F1" height="2" style="stroke:#181818;stroke-width:0.5;" width="4" x="641.9304" y="572.3369"/><rect fill="#F1F1F1" height="2" style="stroke:#181818;stroke-width:0.5;" width="4" x="641.9304" y="576.3369"/><text fill="#000000" font-family="monospace" font-size="14" lengthAdjust="spacing" textLength="193.8604" x="445.07" y="598.332">ParseError&#160;/&#160;FrameError</text></g><!--entity MessageBuilder\n(fluent API)--><g class="entity" data-qualified-name="logfence workspace.logfence-client.MessageBuilder.n.fluent API." data-source-line="19" id="ent0010"><rect fill="#F1F1F1" height="62.5938" rx="2.5" ry="2.5" style="stroke:#181818;stroke-width:0.5;" width="158.002" x="1058" y="433.5969"/><rect fill="#F1F1F1" height="10" style="stroke:#181818;stroke-width:0.5;" width="15" x="1196.002" y="438.5969"/><rect fill="#F1F1F1" height="2" style="stroke:#181818;stroke-width:0.5;" width="4" x="1194.002" y="440.5969"/><rect fill="#F1F1F1" height="2" style="stroke:#181818;stroke-width:0.5;" width="4" x="1194.002" y="444.5969"/><text fill="#000000" font-family="monospace" font-size="14" lengthAdjust="spacing" textLength="118.002" x="1073" y="466.592">MessageBuilder</text><text fill="#000000" font-family="monospace" font-size="14" lengthAdjust="spacing" textLength="101.1445" x="1073" y="482.8889">(fluent&#160;API)</text></g><!--entity UnixTransport\n(stream socket)--><g class="entity" data-qualified-name="logfence workspace.logfence-client.UnixTransport.n.stream socket." data-source-line="20" id="ent0011"><rect fill="#F1F1F1" height="62.5938" rx="2.5" ry="2.5" style="stroke:#181818;stroke-width:0.5;" width="166.4307" x="1250.78" y="433.5969"/><rect fill="#F1F1F1" height="10" style="stroke:#181818;stroke-width:0.5;" width="15" x="1397.2107" y="438.5969"/><rect fill="#F1F1F1" height="2" style="stroke:#181818;stroke-width:0.5;" width="4" x="1395.2107" y="440.5969"/><rect fill="#F1F1F1" height="2" style="stroke:#181818;stroke-width:0.5;" width="4" x="1395.2107" y="444.5969"/><text fill="#000000" font-family="monospace" font-size="14" lengthAdjust="spacing" textLength="109.5732" x="1265.78" y="466.592">UnixTransport</text><text fill="#000000" font-family="monospace" font-size="14" lengthAdjust="spacing" textLength="126.4307" x="1265.78" y="482.8889">(stream&#160;socket)</text></g><!--entity UnixDatagramTransport\n(datagram socket)--><g class="entity" data-qualified-name="logfence workspace.logfence-client.UnixDatagramTransport.n.datagram socket." data-source-line="21" id="ent0012"><rect fill="#F1F1F1" height="62.5938" rx="2.5" ry="2.5" style="stroke:#181818;stroke-width:0.5;" width="217.0029" x="1452.5" y="433.5969"/><rect fill="#F1F1F1" height="10" style="stroke:#181818;stroke-width:0.5;" width="15" x="1649.5029" y="438.5969"/><rect fill="#F1F1F1" height="2" style="stroke:#181818;stroke-width:0.5;" width="4" x="1647.5029" y="440.5969"/><rect fill="#F1F1F1" height="2" style="stroke:#181818;stroke-width:0.5;" width="4" x="1647.5029" y="444.5969"/><text fill="#000000" font-family="monospace" font-size="14" lengthAdjust="spacing" textLength="177.0029" x="1467.5" y="466.592">UnixDatagramTransport</text><text fill="#000000" font-family="monospace" font-size="14" lengthAdjust="spacing" textLength="143.2881" x="1467.5" y="482.8889">(datagram&#160;socket)</text></g><!--entity Transport trait\n(async send)--><g class="entity" data-qualified-name="logfence workspace.logfence-client.Transport trait.n.async send." data-source-line="22" id="ent0013"><rect fill="#F1F1F1" height="62.5938" rx="2.5" ry="2.5" style="stroke:#181818;stroke-width:0.5;" width="166.4307" x="1057.78" y="557.1969"/><rect fill="#F1F1F1" height="10" style="stroke:#181818;stroke-width:0.5;" width="15" x="1204.2107" y="562.1969"/><rect fill="#F1F1F1" height="2" style="stroke:#181818;stroke-width:0.5;" width="4" x="1202.2107" y="564.1969"/><rect fill="#F1F1F1" height="2" style="stroke:#181818;stroke-width:0.5;" width="4" x="1202.2107" y="568.1969"/><text fill="#000000" font-family="monospace" font-size="14" lengthAdjust="spacing" textLength="126.4307" x="1072.78" y="590.192">Transport&#160;trait</text><text fill="#000000" font-family="monospace" font-size="14" lengthAdjust="spacing" textLength="101.1445" x="1072.78" y="606.4889">(async&#160;send)</text></g><!--entity CEE_COOKIE constant--><g class="entity" data-qualified-name="logfence workspace.logfence-client.CEE_COOKIE constant" data-source-line="23" id="ent0014"><rect fill="#F1F1F1" height="46.2969" rx="2.5" ry="2.5" style="stroke:#181818;stroke-width:0.5;" width="200.1455" x="1258.93" y="565.3369"/><rect fill="#F1F1F1" height="10" style="stroke:#181818;stroke-width:0.5;" width="15" x="1439.0755" y="570.3369"/><rect fill="#F1F1F1" height="2" style="stroke:#181818;stroke-width:0.5;" width="4" x="1437.0755" y="572.3369"/><rect fill="#F1F1F1" height="2" style="stroke:#181818;stroke-width:0.5;" width="4" x="1437.0755" y="576.3369"/><text fill="#000000" font-family="monospace" font-size="14" lengthAdjust="spacing" textLength="160.1455" x="1273.93" y="598.332">CEE_COOKIE&#160;constant</text></g><!--entity now_rfc3339()--><g class="entity" data-qualified-name="logfence workspace.logfence-client.now_rfc3339.." data-source-line="24" id="ent0015"><rect fill="#F1F1F1" height="46.2969" rx="2.5" ry="2.5" style="stroke:#181818;stroke-width:0.5;" width="149.5732" x="1494.21" y="565.3369"/><rect fill="#F1F1F1" height="10" style="stroke:#181818;stroke-width:0.5;" width="15" x="1623.7832" y="570.3369"/><rect fill="#F1F1F1" height="2" style="stroke:#181818;stroke-width:0.5;" width="4" x="1621.7832" y="572.3369"/><rect fill="#F1F1F1" height="2" style="stroke:#181818;stroke-width:0.5;" width="4" x="1621.7832" y="576.3369"/><text fill="#000000" font-family="monospace" font-size="14" lengthAdjust="spacing" textLength="109.5732" x="1509.21" y="598.332">now_rfc3339()</text></g><!--entity config.rs--><g class="entity" data-qualified-name="logfence workspace.logfence-daemon.config.rs" data-source-line="28" id="ent0017"><rect fill="#F1F1F1" height="46.2969" rx="2.5" ry="2.5" style="stroke:#181818;stroke-width:0.5;" width="115.8584" x="302.07" y="786.7869"/><rect fill="#F1F1F1" height="10" style="stroke:#181818;stroke-width:0.5;" width="15" x="397.9284" y="791.7869"/><rect fill="#F1F1F1" height="2" style="stroke:#181818;stroke-width:0.5;" width="4" x="395.9284" y="793.7869"/><rect fill="#F1F1F1" height="2" style="stroke:#181818;stroke-width:0.5;" width="4" x="395.9284" y="797.7869"/><text fill="#000000" font-family="monospace" font-size="14" lengthAdjust="spacing" textLength="75.8584" x="317.07" y="819.782">config.rs</text></g><!--entity validator.rs--><g class="entity" data-qualified-name="logfence workspace.logfence-daemon.validator.rs" data-source-line="29" id="ent0018"><rect fill="#F1F1F1" height="46.2969" rx="2.5" ry="2.5" style="stroke:#181818;stroke-width:0.5;" width="141.1445" x="453.43" y="786.7869"/><rect fill="#F1F1F1" height="10" style="stroke:#181818;stroke-width:0.5;" width="15" x="574.5745" y="791.7869"/><rect fill="#F1F1F1" height="2" style="stroke:#181818;stroke-width:0.5;" width="4" x="572.5745" y="793.7869"/><rect fill="#F1F1F1" height="2" style="stroke:#181818;stroke-width:0.5;" width="4" x="572.5745" y="797.7869"/><text fill="#000000" font-family="monospace" font-size="14" lengthAdjust="spacing" textLength="101.1445" x="468.43" y="819.782">validator.rs</text></g><!--entity forwarder.rs--><g class="entity" data-qualified-name="logfence workspace.logfence-daemon.forwarder.rs" data-source-line="30" id="ent0019"><rect fill="#F1F1F1" height="46.2969" rx="2.5" ry="2.5" style="stroke:#181818;stroke-width:0.5;" width="141.1445" x="629.43" y="786.7869"/><rect fill="#F1F1F1" height="10" style="stroke:#181818;stroke-width:0.5;" width="15" x="750.5745" y="791.7869"/><rect fill="#F1F1F1" height="2" style="stroke:#181818;stroke-width:0.5;" width="4" x="748.5745" y="793.7869"/><rect fill="#F1F1F1" height="2" style="stroke:#181818;stroke-width:0.5;" width="4" x="748.5745" y="797.7869"/><text fill="#000000" font-family="monospace" font-size="14" lengthAdjust="spacing" textLength="101.1445" x="644.43" y="819.782">forwarder.rs</text></g><!--entity session.rs--><g class="entity" data-qualified-name="logfence workspace.logfence-daemon.session.rs" data-source-line="31" id="ent0020"><rect fill="#F1F1F1" height="46.2969" rx="2.5" ry="2.5" style="stroke:#181818;stroke-width:0.5;" width="124.2871" x="299.86" y="894.0869"/><rect fill="#F1F1F1" height="10" style="stroke:#181818;stroke-width:0.5;" width="15" x="404.1471" y="899.0869"/><rect fill="#F1F1F1" height="2" style="stroke:#181818;stroke-width:0.5;" width="4" x="402.1471" y="901.0869"/><rect fill="#F1F1F1" height="2" style="stroke:#181818;stroke-width:0.5;" width="4" x="402.1471" y="905.0869"/><text fill="#000000" font-family="monospace" font-size="14" lengthAdjust="spacing" textLength="84.2871" x="314.86" y="927.082">session.rs</text></g><!--entity listener.rs--><g class="entity" data-qualified-name="logfence workspace.logfence-daemon.listener.rs" data-source-line="32" id="ent0021"><rect fill="#F1F1F1" height="46.2969" rx="2.5" ry="2.5" style="stroke:#181818;stroke-width:0.5;" width="132.7158" x="459.64" y="894.0869"/><rect fill="#F1F1F1" height="10" style="stroke:#181818;stroke-width:0.5;" width="15" x="572.3558" y="899.0869"/><rect fill="#F1F1F1" height="2" style="stroke:#181818;stroke-width:0.5;" width="4" x="570.3558" y="901.0869"/><rect fill="#F1F1F1" height="2" style="stroke:#181818;stroke-width:0.5;" width="4" x="570.3558" y="905.0869"/><text fill="#000000" font-family="monospace" font-size="14" lengthAdjust="spacing" textLength="92.7158" x="474.64" y="927.082">listener.rs</text></g><!--entity datagram_listener.rs--><g class="entity" data-qualified-name="logfence workspace.logfence-daemon.datagram_listener.rs" data-source-line="33" id="ent0022"><rect fill="#F1F1F1" height="46.2969" rx="2.5" ry="2.5" style="stroke:#181818;stroke-width:0.5;" width="208.5742" x="627.71" y="894.0869"/><rect fill="#F1F1F1" height="10" style="stroke:#181818;stroke-width:0.5;" width="15" x="816.2842" y="899.0869"/><rect fill="#F1F1F1" height="2" style="stroke:#181818;stroke-width:0.5;" width="4" x="814.2842" y="901.0869"/><rect fill="#F1F1F1" height="2" style="stroke:#181818;stroke-width:0.5;" width="4" x="814.2842" y="905.0869"/><text fill="#000000" font-family="monospace" font-size="14" lengthAdjust="spacing" textLength="168.5742" x="642.71" y="927.082">datagram_listener.rs</text></g><!--entity metrics.rs--><g class="entity" data-qualified-name="logfence workspace.logfence-daemon.metrics.rs" data-source-line="34" id="ent0023"><rect fill="#F1F1F1" height="46.2969" rx="2.5" ry="2.5" style="stroke:#181818;stroke-width:0.5;" width="124.2871" x="299.86" y="1001.3769"/><rect fill="#F1F1F1" height="10" style="stroke:#181818;stroke-width:0.5;" width="15" x="404.1471" y="1006.3769"/><rect fill="#F1F1F1" height="2" style="stroke:#181818;stroke-width:0.5;" width="4" x="402.1471" y="1008.3769"/><rect fill="#F1F1F1" height="2" style="stroke:#181818;stroke-width:0.5;" width="4" x="402.1471" y="1012.3769"/><text fill="#000000" font-family="monospace" font-size="14" lengthAdjust="spacing" textLength="84.2871" x="314.86" y="1034.372">metrics.rs</text></g><!--entity main.rs--><g class="entity" data-qualified-name="logfence workspace.logfence-daemon.main.rs" data-source-line="35" id="ent0024"><rect fill="#F1F1F1" height="46.2969" rx="2.5" ry="2.5" style="stroke:#181818;stroke-width:0.5;" width="99.001" x="459.5" y="1001.3769"/><rect fill="#F1F1F1" height="10" style="stroke:#181818;stroke-width:0.5;" width="15" x="538.501" y="1006.3769"/><rect fill="#F1F1F1" height="2" style="stroke:#181818;stroke-width:0.5;" width="4" x="536.501" y="1008.3769"/><rect fill="#F1F1F1" height="2" style="stroke:#181818;stroke-width:0.5;" width="4" x="536.501" y="1012.3769"/><text fill="#000000" font-family="monospace" font-size="14" lengthAdjust="spacing" textLength="59.001" x="474.5" y="1034.372">main.rs</text></g><!--entity integration tests--><g class="entity" data-qualified-name="logfence workspace.logfence-itests.integration tests" data-source-line="39" id="ent0026"><rect fill="#F1F1F1" height="46.2969" rx="2.5" ry="2.5" style="stroke:#181818;stroke-width:0.5;" width="183.2881" x="680.36" y="189.2969"/><rect fill="#F1F1F1" height="10" style="stroke:#181818;stroke-width:0.5;" width="15" x="843.6481" y="194.2969"/><rect fill="#F1F1F1" height="2" style="stroke:#181818;stroke-width:0.5;" width="4" x="841.6481" y="196.2969"/><rect fill="#F1F1F1" height="2" style="stroke:#181818;stroke-width:0.5;" width="4" x="841.6481" y="200.2969"/><text fill="#000000" font-family="monospace" font-size="14" lengthAdjust="spacing" textLength="143.2881" x="695.36" y="222.292">integration&#160;tests</text></g><!--entity benchmarks--><g class="entity" data-qualified-name="logfence workspace.logfence-itests.benchmarks" data-source-line="40" id="ent0027"><rect fill="#F1F1F1" height="46.2969" rx="2.5" ry="2.5" style="stroke:#181818;stroke-width:0.5;" width="124.2871" x="898.86" y="189.2969"/><rect fill="#F1F1F1" height="10" style="stroke:#181818;stroke-width:0.5;" width="15" x="1003.1471" y="194.2969"/><rect fill="#F1F1F1" height="2" style="stroke:#181818;stroke-width:0.5;" width="4" x="1001.1471" y="196.2969"/><rect fill="#F1F1F1" height="2" style="stroke:#181818;stroke-width:0.5;" width="4" x="1001.1471" y="200.2969"/><text fill="#000000" font-family="monospace" font-size="14" lengthAdjust="spacing" textLength="84.2871" x="913.86" y="222.292">benchmarks</text></g><g class="entity" data-qualified-name="GMN32" data-source-line="51" id="ent0033"><path d="M1761.01,444.7669 L1761.01,485.0325 L2008.9831,485.0325 L2008.9831,454.7669 L1998.9831,444.7669 L1761.01,444.7669" fill="#FEFFDD" style="stroke:#181818;stroke-width:0.5;"/><path d="M1998.9831,444.7669 L1998.9831,454.7669 L2008.9831,454.7669 L1998.9831,444.7669" fill="#FEFFDD" style="stroke:#181818;stroke-width:1;"/><text fill="#000000" font-family="monospace" font-size="13" lengthAdjust="spacing" textLength="195.6665" x="1767.01" y="461.8338">No&#160;external&#160;runtime&#160;deps.</text><text fill="#000000" font-family="monospace" font-size="13" lengthAdjust="spacing" textLength="226.9731" x="1767.01" y="476.9666">tokio-util&#160;codec&#160;traits&#160;only.</text></g><g class="entity" data-qualified-name="GMN35" data-source-line="56" id="ent0036"><path d="M2044.1,444.7669 L2044.1,485.0325 L2299.8998,485.0325 L2299.8998,454.7669 L2289.8998,444.7669 L2044.1,444.7669" fill="#FEFFDD" style="stroke:#181818;stroke-width:0.5;"/><path d="M2289.8998,444.7669 L2289.8998,454.7669 L2299.8998,454.7669 L2289.8998,444.7669" fill="#FEFFDD" style="stroke:#181818;stroke-width:1;"/><text fill="#000000" font-family="monospace" font-size="13" lengthAdjust="spacing" textLength="164.3599" x="2050.1" y="461.8338">No&#160;chrono&#160;dependency.</text><text fill="#000000" font-family="monospace" font-size="13" lengthAdjust="spacing" textLength="234.7998" x="2050.1" y="476.9666">Uses&#160;std::time&#160;for&#160;timestamps.</text></g><g class="entity" data-qualified-name="GMN38" data-source-line="61" id="ent0039"><path d="M1760.67,789.8069 L1760.67,830.0725 L1977.3365,830.0725 L1977.3365,799.8069 L1967.3365,789.8069 L1760.67,789.8069" fill="#FEFFDD" style="stroke:#181818;stroke-width:0.5;"/><path d="M1967.3365,789.8069 L1967.3365,799.8069 L1977.3365,799.8069 L1967.3365,789.8069" fill="#FEFFDD" style="stroke:#181818;stroke-width:1;"/><text fill="#000000" font-family="monospace" font-size="13" lengthAdjust="spacing" textLength="195.6665" x="1766.67" y="806.8738">tokio,&#160;serde,&#160;jsonschema,</text><text fill="#000000" font-family="monospace" font-size="13" lengthAdjust="spacing" textLength="195.6665" x="1766.67" y="822.0066">clap,&#160;tracing,&#160;tokio-util</text></g><!--link logfence-client to logfence-proto--><g class="link" data-entity-1="ent0009" data-entity-2="ent0003" data-link-type="dependency" data-source-line="45" id="lnk28"><path d="M1695.076,339.2488 C1694.5461,338.544 1694.0017,337.849 1693.4425,337.1643 C1691.2057,334.4256 1688.7319,331.8525 1686,329.4769 C1632,282.5269 1110.55,308.9669 1042,329.4769 C991.155,344.6919 941.235,376.9394 903.2725,406.1494 C884.2913,420.7544 868.2994,434.6 856.6759,445.1775 C853.7701,447.8219 851.1372,450.262 848.799,452.4587 C847.6299,453.557 846.5344,454.5944 845.5152,455.5661 C845.0057,456.052 848.8429,452.3656 848.3718,452.818" fill="none" id="logfence-client-to-logfence-proto" style="stroke:#444444;stroke-width:1;"/><polygon fill="#444444" points="844.0441,456.9738,853.3062,453.6252,847.6505,453.5106,847.7651,447.8549,844.0441,456.9738" style="stroke:#444444;stroke-width:1;"/><text fill="#000000" font-family="monospace" font-size="13" lengthAdjust="spacing" textLength="148.7065" x="1257" y="296.6638">uses&#160;SyslogMessage,</text><text fill="#000000" font-family="monospace" font-size="13" lengthAdjust="spacing" textLength="117.3999" x="1272.6533" y="311.7966">OctetCountCodec</text></g><!--link logfence-daemon to logfence-proto--><g class="link" data-entity-1="ent0016" data-entity-2="ent0003" data-link-type="dependency" data-source-line="46" id="lnk29"><path d="M853.0592,692.6479 C853.0439,692.4148 853.0286,692.1818 853.0134,691.9489 C852.9828,691.483 852.9522,691.0177 852.9216,690.5528 C852.8604,689.623 852.7991,688.695 852.7378,687.7693 C852.4925,684.0664 852.2463,680.3988 852,676.7869 C850.425,653.7069 848.6563,629.2144 846.8845,605.4023 C845.9987,593.4963 845.1121,581.7604 844.2486,570.4563 C844.1946,569.7498 844.1407,569.0449 844.0869,568.3419 C844.0601,567.9903 844.4911,573.6217 844.4643,573.2711" fill="none" id="logfence-daemon-to-logfence-proto" style="stroke:#444444;stroke-width:1;"/><polygon fill="#444444" points="844.0063,567.2886,840.7049,576.5676,844.388,572.274,848.6816,575.957,844.0063,567.2886" style="stroke:#444444;stroke-width:1;"/><text fill="#000000" font-family="monospace" font-size="13" lengthAdjust="spacing" textLength="148.7065" x="851.79" y="578.0538">uses&#160;SyslogMessage,</text><text fill="#000000" font-family="monospace" font-size="13" lengthAdjust="spacing" textLength="125.2266" x="863.53" y="593.1866">OctetCountCodec,</text><text fill="#000000" font-family="monospace" font-size="13" lengthAdjust="spacing" textLength="109.5732" x="871.3567" y="608.3194">DelimiterCodec</text></g><!--link logfence-itests to logfence-client--><g class="link" data-entity-1="ent0025" data-entity-2="ent0009" data-link-type="dependency" data-source-line="47" id="lnk30"><path d="M1067.2383,213.6142 C1067.5202,213.6207 1067.8091,213.6274 1068.1048,213.6344 C1068.6961,213.6482 1069.3148,213.663 1069.9603,213.6787 C1071.2513,213.7101 1072.6498,213.7452 1074.1522,213.7843 C1077.1569,213.8626 1080.5771,213.957 1084.3842,214.0701 C1099.6124,214.5226 1121.0305,215.2742 1146.8072,216.4884 C1198.3606,218.9169 1267.3488,223.1956 1339.1225,230.6319 C1482.67,245.5044 1637.36,273.0069 1686,323.5969 C1688.6831,326.3875 1691.108,329.3658 1693.2963,332.4981 C1694.3904,334.0642 1695.4254,335.6689 1696.4039,337.3078 C1696.6485,337.7175 1696.8896,338.1294 1697.1272,338.5434 C1697.2461,338.7503 1694.4212,333.7291 1694.5382,333.9371" fill="none" id="logfence-itests-to-logfence-client" style="stroke:#444444;stroke-width:1;"/><polygon fill="#444444" points="1697.4811,339.1658,1696.5527,329.3608,1695.0287,334.8086,1689.581,333.2846,1697.4811,339.1658" style="stroke:#444444;stroke-width:1;"/><text fill="#000000" font-family="monospace" font-size="13" lengthAdjust="spacing" textLength="117.3999" x="1673.23" y="296.6638">MessageBuilder,</text><text fill="#000000" font-family="monospace" font-size="13" lengthAdjust="spacing" textLength="101.7466" x="1681.0567" y="311.7966">UnixTransport</text></g><!--link logfence-itests to logfence-proto--><g class="link" data-entity-1="ent0025" data-entity-2="ent0003" data-link-type="dependency" data-source-line="48" id="lnk31"><path d="M1047.0843,259.6891 C1047.0413,259.794 1046.9981,259.8988 1046.9547,260.0037 C1046.7814,260.4229 1046.6058,260.8414 1046.428,261.259 C1045.7166,262.9295 1044.9687,264.5854 1044.1828,266.2156 C1042.6111,269.4759 1040.8875,272.6331 1039,275.5969 C1006.46,326.6819 956.775,373.0944 914.705,407.0594 C893.67,424.0419 874.5387,437.9125 860.4063,447.6994 C856.8731,450.1461 853.6524,452.3376 850.7925,454.2586 C849.3625,455.2192 848.0228,456.1121 846.7792,456.9355 C846.1575,457.3472 845.5598,457.7416 844.9869,458.1183 C844.7005,458.3067 849.4386,455.2019 849.1646,455.3814" fill="none" id="logfence-itests-to-logfence-proto" style="stroke:#444444;stroke-width:1;"/><polygon fill="#444444" points="844.1463,458.6701,853.8663,457.0826,848.3283,455.9295,849.4813,450.3914,844.1463,458.6701" style="stroke:#444444;stroke-width:1;"/><text fill="#000000" font-family="monospace" font-size="13" lengthAdjust="spacing" textLength="140.8799" x="1031.74" y="304.1638">Facility,&#160;Severity</text></g><!--link logfence-proto to GMN32--><g class="link" data-entity-1="ent0003" data-entity-2="ent0033" data-link-type="association" data-source-line="51" id="lnk34"><path d="M844.1201,455.6548 C844.242,455.5197 844.3652,455.3833 844.4897,455.2456 C844.9876,454.6947 845.5063,454.1231 846.0452,453.5315 C847.1232,452.3481 848.2825,451.0847 849.5206,449.747 C851.9968,447.0717 854.7881,444.0997 857.8733,440.8786 C870.2141,427.9941 887.2581,411.1238 907.6563,393.3156 C948.4525,357.6994 1002.665,318.3319 1059.5,299.5969 C1127.46,277.1969 1636.77,273.7669 1703.5,299.5969 C1779.61,329.0669 1843.42,406.9469 1870.74,444.3169" fill="none" id="logfence-proto-GMN32" style="stroke:#444444;stroke-width:1;stroke-dasharray:7,7;"/></g><!--link logfence-client to GMN35--><g class="link" data-entity-1="ent0009" data-entity-2="ent0036" data-link-type="association" data-source-line="56" id="lnk37"><path d="M1713.1462,367.5951 C1713.2243,367.3168 1713.3031,367.0386 1713.3825,366.7606 C1713.7001,365.6484 1714.0281,364.5388 1714.3667,363.4324 C1717.0758,354.5809 1720.4675,345.9351 1724.7019,337.8755 C1733.1706,321.7563 1745.01,307.9819 1761.5,299.5969 C1810.43,274.7169 1957.85,278.4569 2008.5,299.5969 C2079.83,329.3769 2135.94,407.0969 2159.68,444.3769" fill="none" id="logfence-client-GMN35" style="stroke:#444444;stroke-width:1;stroke-dasharray:7,7;"/></g><!--link logfence-daemon to GMN38--><g class="link" data-entity-1="ent0016" data-entity-2="ent0039" data-link-type="association" data-source-line="61" id="lnk40"><path d="M871.0334,809.9369 C872.2048,809.9369 873.3763,809.9369 874.5478,809.9369 C879.2337,809.9369 883.9197,809.9369 888.6056,809.9369 C897.9775,809.9369 907.3493,809.9369 916.7211,809.9369 C935.4648,809.9369 954.2084,809.9369 972.9521,809.9369 C1010.4393,809.9369 1047.9263,809.9369 1085.4133,809.9369 C1160.3872,809.9369 1235.3606,809.9369 1310.3338,809.9369 C1460.28,809.9369 1610.225,809.9369 1760.17,809.9369" fill="none" id="logfence-daemon-GMN38" style="stroke:#444444;stroke-width:1;stroke-dasharray:7,7;"/></g><?plantuml-src fLJRJjj047ttLupW1LGdfGszHGW975j2Y8kQyWG8RTSJPvlrhZMx9aHLfNv4_w7_qK_fbtISs8aJIdce7KNspDapSyPdrokl4RJDHcWamk_lFo0YuH46MA19EJY3eQTI-f8m2Dn4cKAGo275aIYrJwpnvo97EBF6ka98J5iWVf-838T-naK8fHScqzW2717PQMIr9TZUdr-jv36lpiYM9gqHoL5r1q5D2rlBlgUM9lFgM_0r200U8Je5MM-tuE10Ll8E3s5xC8ZZ964yy7MT2AcqyZDu2KEyHreyNfAorUFj0ZISEIOyG-UO_CRiS9yE2Lx0GBb2YzbkZRkG7dt4dVDVYfAH7vC8thvv_mv-_Unrzxkl6kG0jSgLHte2-Be1NbQbOXuNSLi9ZsVnKcM__Lsnr0gDtv2S98EzHdAjuxXKEaNYsYDTyWeukZnfgbuPzV29X7659Sy8vmdvopWh9-ZRe87m8kEksk2qZct0bn3m95G556vc93ZsMuE9ulWkkhWuFOb1MkFODxxE63kzev7izNeVTdR_eJuLc5kpfZv9uZYA6lNCEr9PbrnDV2-queujhK8ZIrD1F9jLoF7Cb3MhW5REesb36jbtZrCvUbBIjG92DLnFw61lEE_MTUnLTwD36OzSpdDNCCVMr9zv-JWNl2zgTlvTRvZZ5ZgTGxXUtoItq8UITSAQsyCRi-7g5jjYsF_5nf7rlT2YNynWaxwHq8Tr8pFJccsV9LhssPm1uV88209Z-J0abOqzsD6ZHJpPSmlum4qReO5OZUB3CCN2TJddxKJPJkcLPXkpfeNZ7LYZPzs0_GuL_TD5QecBAd9CVCPMtFN1N5MugaRhVDhlpmkpOw5wu1sJLoqyNwB-T4sp8Mz3Tdm8NnplEpd6N8ISareKOTMzL2OBMxfM5Vu0?></g></svg>